<svg class="ugb-custom-icon" xmlns="http://www.w3.org/2000/svg" viewBox="0 0 100 100" style="enable-background:new 0 0 100 100" xml:space="preserve" aria-hidden="true" width="32" height="32"><path d="M20 100c-.7-.2-1.3-.4-1.9-.7-2.7-1.2-4.5-3.9-4.6-6.9V8.5c0-4 2-7.1 5.5-8.1.8-.3 1.7-.4 2.5-.4h43.3C69.7 0 73 3.4 73 8.4v41.7c0 .4 0 .8-.1 1.2-.1.7-.7 1.1-1.4 1.1s-1.3-.6-1.3-1.3V8.5c0-2.8-1.4-5-3.9-5.3-1.5-.2-3.1-.2-4.6-.2h-1.6c-.2 0-.4.4-.4.6l-.6 3c-.5 3.1-3.2 5.3-6.3 5.4H33.7c-3.1-.1-5.7-2.3-6.3-5.3-.3-1.2-.5-2.4-.7-3.5-2.2-.1-4.3-.1-6.5.1-2.3.4-3.9 2.4-3.9 4.7v83.7c0 2.9 1.5 5 4 5.5.4.1.9.1 1.3.1h43.3c3.2 0 5.3-2.1 5.3-5.4V79.2c0-.3 0-.5-.1-.9h-8.8c-1.7 0-3.2-.9-4.1-2.4-.2-.3-.6-.5-1-.6H34.1c-.3 0-.7.2-.9.4-.8 1.9-2.7 3-4.7 3-.1 0-.2 0-.3.1V83c0 .9.7 1.6 1.6 1.6h4.9c1.1 0 1.8.5 1.8 1.4 0 .9-.7 1.5-1.7 1.5h-4.9c-2.5 0-4.4-2-4.4-4.5v-4.1c-.6-.1-1.2-.1-1.8-.3-2.3-.6-3.8-2.7-3.6-5 .1-2.4 2-4.3 4.4-4.5 1.6-.1 3.3-.1 4.9 0 1.7.1 3.3 1.2 4 2.7.1.3.5.6.7.6h6.7c0-.4.1-.7.1-1v-6c-.1-2.5 1.7-4.5 4.2-4.7H56c.6.1 1.1-.3 1.2-.8.6-1.9 2.3-3.1 4.3-3.1h20.8c2.7.1 4.8 2.4 4.6 5-.1 2.5-2.1 4.5-4.6 4.6-2.6.1-5.2 0-7.8 0H73v2h8.5c2.7-.1 4.9 2.1 5 4.7.1 2.7-2.1 4.9-4.7 5H73v13c0 4.7-2 7.4-6.4 8.7-.1 0-.1.1-.1.1L20 100zm8.9-24.4c1 0 1.9-.9 1.9-1.9 0-1-.8-1.9-1.8-1.9-1.5-.1-3-.1-4.4 0-1 0-1.8.9-1.8 1.9 0 1 .8 1.9 1.9 1.9h4.2zm52.8-.4c1.1.1 2-.7 2-1.8.1-1.1-.7-2-1.8-2h-20c-.3 0-.7 0-1 .1-1 .2-1.7 1.2-1.5 2.2v.1c.2.9 1.1 1.6 2.1 1.5h10.1c3.4 0 6.7-.1 10.1-.1zM45 63.5c-.8-.1-1.5.5-1.5 1.3v.1c-.1 2.4 0 4.8 0 7.1.1.1.2.1.3.1h12.4c.3-.1.6-.3.7-.6.7-2 2.6-3.3 4.7-3.2h7.5c.3 0 .7 0 1-.1v-2h-8.6c-1.8.1-3.5-.9-4.4-2.4-.2-.2-.4-.4-.7-.5h-6.1c-1.7.2-3.5.2-5.3.2zm16.5-3.9c-1.1-.1-2 .6-2.1 1.7 0 .2 0 .5.1.7.2.9 1 1.4 2.2 1.4h19.8c.4 0 .9 0 1.1-.2.5-.5 1.1-1.1 1.1-1.6-.1-.7-.4-1.3-.9-1.7-.3-.3-.9-.3-1.3-.3h-20zM30.3 6.5C30.7 8 32.1 9 33.6 9h19.2c1.6 0 3-1.1 3.4-2.6.3-1.1.5-2.2.7-3.4H29.5c.2 1.2.5 2.4.8 3.5zm20.6 84.1h-5.8c-2.7 0-4.8-2.1-4.8-4.8 0-2.7 2.1-4.8 4.8-4.8H57c2.6 0 4.7 2.1 4.7 4.6v.3c0 2.6-2.1 4.7-4.7 4.8H54.7c-1.3-.1-2.6-.1-3.8-.1zm5.7-2.9c1 .1 2-.7 2.1-1.7s-.7-2-1.7-2.1H45.1c-1-.1-2 .7-2.1 1.7v.2c0 1.1.9 1.9 1.9 1.9h11.7zm6-41.2c-2.5-3.4-4.9-6.7-7.4-10.1-.2-.2-.3-.4-.5-.7-.2.3-.5.5-.7.8-2.3 3.1-4.5 6.2-6.8 9.3-.1.2-.3.4-.5.6-.5.6-1.3.6-1.9.2-.6-.5-.7-1.4-.3-2 .6-.8 1.2-1.6 1.7-2.4 2.2-3 4.3-6 6.6-9-2-2.7-4-5.4-5.9-8.1-.5-.6-1-1.3-1.4-1.9-.5-.7-.5-1.6.1-2.2h.1c.6-.5 1.5-.4 2 .2 0 .1.1.1.1.2 2.2 2.9 4.4 5.9 6.5 8.9.1.1.2.3.4.5.2-.3.4-.5.6-.8l5.9-8.1c.1-.2.3-.4.4-.5.4-.6 1.3-.8 1.9-.3.6.5.8 1.4.3 2.1-.4.6-.9 1.3-1.3 1.9-2 2.7-4 5.5-6 8.3 2.1 2.9 4.2 5.8 6.3 8.6.7 1 1.4 2 2.2 3 .7.9.6 1.8-.1 2.3-.2.2-.5.3-.8.3-.7-.3-1.2-.6-1.5-1.1zM21.1 40c-.2-1.2-.2-2.5-.1-3.7V22.8c0-1.3.5-2 1.4-2 .9 0 1.4.7 1.4 2 0 5 .2 10-.1 15-.2 3.8 3.8 6.8 7.1 6.3 1.5-.2 2.9-.8 4.1-1.9 1.2-1 1.9-2.5 1.8-4.1v-16c0-.8.6-1.4 1.4-1.4h.1c.8 0 1.3.7 1.3 1.4v15.3c0 4.5-2.3 7.8-6.5 9.2-.9.3-1.8.4-2.8.4-4.4.3-8.2-2.7-9.1-7zM64 9.1c-.8-.1-1.4-.7-1.3-1.5 0-.7.7-1.3 1.4-1.3.8 0 1.4.7 1.4 1.5-.1.7-.7 1.3-1.5 1.3zM41.5 7.7h-1.1c-.7 0-1.4-.6-1.4-1.3v-.2c0-.8.6-1.4 1.4-1.4H46.1c.8 0 1.4.5 1.5 1.3v.1c0 .7-.5 1.4-1.3 1.4H41.9l-.4.1z"></path></svg>