<svg class="ugb-custom-icon" xmlns="http://www.w3.org/2000/svg" viewBox="0 0 100 100" style="enable-background:new 0 0 100 100" xml:space="preserve" aria-hidden="true" width="32" height="32"><path d="M7.9 99.8c-4.1 0-6.7-2-7.8-6 0-.1-.1-.2-.1-.3V34.8s.1 0 .1-.1c1.6-4.8 3.8-6.4 8.8-6.4H17v-3.6c0-3.9 2.3-6.2 6.2-6.2h49.1c2.6 0 3.6-.9 3.6-3.6v-2c.1-1.5-1-2.8-2.5-2.9H52c-4.1 0-6.4-2.3-6.4-6.4V1.7c0-.8.7-1.5 1.5-1.5s1.5.7 1.4 1.5v2.1c-.2 1.6 1 3 2.5 3.1h.7c7 0 13.9.1 20.9 0 3.3-.2 6.1 2.3 6.3 5.5v3c.1 3.2-2.3 5.8-5.5 5.9H23.1c-1.5-.2-2.9.9-3.1 2.4V28h62.8c4-.2 7.4 2.7 7.9 6.6.1 1.4.1 2.9 0 4.3 1.2-.3 2.5-.5 3.8-.6 2.3 0 4.3 1.5 5 3.6.9 2.1.5 4.5-1.1 6.1-1.5 1.7-3.2 3.2-4.8 4.9L85.5 61c-.4.4-.6.9-.6 1.5v26.9c0 2.7-1.3 4-4 4H21.1c-.7-.1-1.2-.6-1.2-1.3-.1-.7.3-1.3 1-1.5.4-.1.9-.1 1.3-.1h58.2c1.5 0 1.5 0 1.5-1.5V64.6c-.4.4-.7.6-.9.8L70.4 76c-3.5 3.6-8 6-12.9 6.9-1.9.4-2.7-.4-2.3-2.3.9-4.7 3.1-9 6.4-12.4 5.2-4.9 10.4-10 15.6-15.2.2-.2.5-.5.8-.7 0-.1-.1-.2-.1-.2-.3 0-.5-.1-.8-.1H10c-1.2 0-1.3.1-1.3 1.3v36.2c0 1.2.1 1.3 1.2 1.3h4.2c1.1 0 1.8.6 1.8 1.5s-.6 1.4-1.8 1.5H9.4c-1.9.1-3.6-1.4-3.7-3.3V52.9c0-2.5 1.5-3.8 4.1-3.8h69.8c.9.1 1.8-.3 2.4-1 1.7-1.8 3.5-3.4 5.1-5.2.3-.3.5-.8.5-1.3.1-1.8 0-3.6 0-5.5.1-2.6-1.9-4.8-4.6-4.9H58.8c-.3 0-.5 0-.9.1v3.5c0 3.3-1.9 5.2-5.2 5.2H37.3c-2.6.2-5-1.7-5.2-4.4v-4.4H7.9c-3.3 0-5.2 2-5.2 5.2v55.5c-.2 2.4 1.6 4.6 4 4.8h76.2c2.4.2 4.6-1.6 4.8-4V63.1c0-.8.7-1.4 1.5-1.4s1.4.6 1.4 1.4V74.2h2.9c1.4 0 1.9.5 1.9 1.9v11.5c0 1.4-.5 1.9-1.9 1.9h-2.9v2.4c0 4.7-3.1 7.8-7.8 7.8l-74.9.1zm83-13.2h1.7v-9.2h-1.7v9.2zm-5.2-37.9C78.3 56.1 70.9 63.5 63.5 71c-2.4 2.5-4.1 5.6-5 9 .3-.1.5-.1.6-.1 3.6-1.1 6.8-3.1 9.4-5.7 7.9-7.9 15.8-15.8 23.7-23.8l.5-.5-4.1-4.1c-.8.8-1.8 1.9-2.9 2.9zm5.4-5.3 4.1 4.1c1.1-.9 2.1-1.9 1.8-3.5-.2-1.2-1.1-2.1-2.3-2.3-.2 0-.4-.1-.6-.1-1.2 0-2.3.7-3 1.8zm-44.2-6.3h6.6c.9 0 1.7-.7 1.8-1.7v-4.1h-8.4v5.8zm-11.5-1.7c0 .9.7 1.6 1.5 1.6 2.3.1 4.5 0 6.8 0v-5.8h-8.4c.1 1.5 0 2.9.1 4.2zm37.7 44.9c0-.8.7-1.4 1.5-1.4s1.4.7 1.4 1.4c0 .8-.6 1.4-1.4 1.4-.9.1-1.5-.6-1.5-1.4zm-56.5.1c0-.8.5-1.4 1.3-1.5.8-.1 1.5.5 1.5 1.3v.1c0 .8-.6 1.4-1.4 1.5-.8-.1-1.4-.7-1.4-1.4zm18.8-.1c0-.8.6-1.5 1.4-1.5h.1c.8 0 1.4.6 1.4 1.4 0 .8-.6 1.4-1.4 1.4-.8.1-1.5-.5-1.5-1.3zM16.6 64.2c-.1-.8.5-1.5 1.3-1.5h.1c.8 0 1.4.6 1.5 1.4 0 .8-.6 1.4-1.4 1.5H18c-.8 0-1.4-.6-1.4-1.4zm20.2 1.4c-.8 0-1.4-.7-1.4-1.4 0-.8.7-1.5 1.5-1.5s1.4.7 1.4 1.5c-.1.8-.7 1.4-1.5 1.4zm17.5-1.4c0-.8.6-1.5 1.3-1.5h.1c.8 0 1.4.6 1.5 1.4 0 .8-.6 1.4-1.4 1.5h-.1c-.8 0-1.4-.6-1.4-1.4zM9.1 44c-1-1.9-.7-4.2.7-5.7 1.3-1.5 2.6-2.8 4.1-4.1 2.1-1.8 5.2-1.7 7.2.2s2.3 5 .5 7.2a30.5 30.5 0 0 1-4.4 4.4c-.8.5-1.7.9-2.7 1.2-2.8-.2-4.4-1.2-5.4-3.2zm6.8-7.6c-1.3 1.2-2.6 2.5-3.8 3.8-.6.7-.8 1.7-.3 2.6.5.9 1.4 1.5 2.4 1.4.4-.1.8-.3 1.2-.5 1.3-1.2 2.6-2.5 3.9-3.9.8-1 .7-2.3-.2-3.2-.5-.5-1.1-.7-1.8-.7-.5 0-1 .1-1.4.5zm56.8 9.2c-1.2-1.1-2.4-2.3-3.5-3.5-2.1-2.1-2-5.6.1-7.6s5.4-2 7.5 0c1.3 1.2 2.5 2.4 3.6 3.7 1.5 1.5 1.9 3.9.9 5.8-.8 1.9-2.6 3.2-4.6 3.2-1.5 0-3-.6-4-1.6zm-1.9-8.3c-.5.9-.3 1.9.4 2.6 1.1 1.2 2.3 2.3 3.4 3.5 1 1 2.5 1 3.5 0s1-2.5 0-3.5l-.1-.1c-1.1-1.1-2.1-2.2-3.3-3.2-.5-.4-1.1-.7-1.6-.9-.9.1-1.9.7-2.3 1.6z"></path></svg>